<svg preserveAspectRatio="none" width="100%" height="100%" overflow="visible" style="display: block;" viewBox="0 0 17 17" fill="none" xmlns="http://www.w3.org/2000/svg">
<path id="Vector (Stroke)" fill-rule="evenodd" clip-rule="evenodd" d="M0.322183 0.322183C0.751759 -0.107394 1.44824 -0.107394 1.87782 0.322183L8.1 6.54437L14.3222 0.322183C14.7518 -0.107394 15.4482 -0.107394 15.8778 0.322183C16.3074 0.751759 16.3074 1.44824 15.8778 1.87782L9.65563 8.1L15.8778 14.3222C16.3074 14.7518 16.3074 15.4482 15.8778 15.8778C15.4482 16.3074 14.7518 16.3074 14.3222 15.8778L8.1 9.65563L1.87782 15.8778C1.44824 16.3074 0.751759 16.3074 0.322183 15.8778C-0.107394 15.4482 -0.107394 14.7518 0.322183 14.3222L6.54437 8.1L0.322183 1.87782C-0.107394 1.44824 -0.107394 0.751759 0.322183 0.322183Z" fill="var(--fill-0, #212B36)"/>
</svg>
