<svg preserveAspectRatio="none" width="100%" height="100%" overflow="visible" style="display: block;" viewBox="0 0 160 28" fill="none" xmlns="http://www.w3.org/2000/svg">
<g id="Element/2.logo/coupang eats/Splash">
<path id="Combined Shape" d="M6.5293 4.3427C9.82052 4.35473 11.4192 5.87784 12.1875 7.22454C12.2403 7.31981 12.2855 7.41412 12.3301 7.50774C12.3393 7.53731 12.3466 7.56643 12.3467 7.60051C12.3467 7.68838 12.2989 7.76066 12.2275 7.80071V7.80364L9.76758 9.09563C9.76758 9.09387 9.76752 9.09636 9.76562 9.09563C9.73159 9.11236 9.69954 9.12288 9.66309 9.12298C9.56387 9.12298 9.48198 9.06015 9.44922 8.97454C9.06394 8.11566 8.23558 7.20348 6.51367 7.19622C3.72812 7.20682 3.27057 9.59706 3.27051 10.2802V15.1054C3.27051 15.7894 3.72793 18.1757 6.51367 18.1884C8.21148 18.1814 9.04132 17.2938 9.43359 16.4482V16.4433C9.43846 16.4373 9.44072 16.4305 9.44336 16.4257H9.44629C9.48454 16.3559 9.55554 16.3048 9.64453 16.3046C9.68263 16.3046 9.71695 16.3165 9.74805 16.3339C9.74926 16.3338 9.74979 16.3333 9.75 16.3329L12.2178 17.5761C12.2198 17.5786 12.2232 17.5796 12.2275 17.58L12.2324 17.5839V17.5868C12.3091 17.6228 12.3604 17.6988 12.3604 17.79C12.3603 17.8267 12.3501 17.8598 12.335 17.8915L12.3379 17.8945C12.286 17.9921 12.2427 18.0889 12.1875 18.1884C11.4192 19.5353 9.82052 21.0583 6.5293 21.0693H6.49414C3.2056 21.0583 1.60695 19.5353 0.838867 18.1884C0.0326896 16.7758 0 15.2849 0 14.9833V10.4277C0 10.128 0.0327606 8.63715 0.838867 7.22454C1.60695 5.87784 3.2056 4.35473 6.49414 4.3427V4.34173H6.5293V4.3427ZM19.8652 4.3427C23.1563 4.35473 24.7542 5.87805 25.5215 7.22454C26.3276 8.63717 26.3613 10.128 26.3613 10.4277V14.9833C26.3613 15.2849 26.3277 16.776 25.5215 18.1884C24.7542 19.5352 23.156 21.0581 19.8652 21.0693H19.8291C16.5399 21.0579 14.9423 19.5352 14.1719 18.1884C13.3686 16.776 13.3359 15.2849 13.3359 14.9833V10.4277C13.3359 10.128 13.3686 8.63718 14.1719 7.22454C14.9422 5.87811 16.5396 4.35486 19.8291 4.3427V4.34173H19.8652V4.3427ZM41.3281 4.63274C41.3281 4.63396 41.3285 4.63524 41.3271 4.63567C41.4509 4.63716 41.5527 4.73888 41.5527 4.86516V20.5195C41.5527 20.5222 41.5557 20.5255 41.5557 20.5292C41.5555 20.6562 41.4508 20.7606 41.3271 20.7607H38.7363V20.7577C38.7311 20.7577 38.7278 20.7606 38.7236 20.7607C38.6013 20.7607 38.502 20.6604 38.4971 20.5351H38.4932V19.4189C37.6417 20.2587 36.3511 21.063 34.3965 21.0693H34.3613C31.401 21.0582 29.9608 19.5353 29.2695 18.1884C28.5435 16.7758 28.5117 15.2849 28.5117 14.9833V4.88762H28.5146C28.5146 4.76193 28.617 4.66106 28.7422 4.66106C28.7439 4.66108 28.744 4.66201 28.7471 4.66204L31.5586 4.65716V4.66204C31.5621 4.66201 31.5623 4.66106 31.5645 4.66106C31.6913 4.66109 31.7969 4.76491 31.7969 4.89348H31.793V15.1181C31.793 15.8034 32.2501 18.1916 35.0391 18.2011C37.8254 18.1915 38.2793 15.8034 38.2793 15.1181V10.4189H38.2871V4.88176C38.2871 4.87556 38.2842 4.86972 38.2842 4.86516C38.2842 4.753 38.3633 4.66062 38.4688 4.63958L38.5146 4.63567V4.63274H41.3281ZM19.8496 7.19622C17.063 7.20659 16.6065 9.59671 16.6064 10.2802V15.1054C16.6064 15.7896 17.0627 18.1762 19.8496 18.1884C22.6361 18.176 23.0928 15.7896 23.0928 15.1054V10.2802C23.0927 9.59673 22.6358 7.20676 19.8496 7.19622Z" fill="var(--fill-0, #935227)"/>
<path id="Combined Shape_2" d="M115.389 4.34317C118.68 4.35499 120.292 5.86988 121.047 7.22403C121.451 7.94882 121.728 8.74327 121.861 9.56387C121.988 10.3568 121.948 11.1623 121.944 11.9623C121.942 12.1878 121.941 12.4136 121.939 12.6391C121.935 13.0601 121.596 13.3998 121.178 13.3998H112.139L112.13 13.1371V15.1059C112.13 15.7905 112.588 18.1754 115.373 18.1879C117.071 18.1808 117.901 17.2944 118.293 16.4486V16.4428C118.298 16.437 118.3 16.4301 118.303 16.4252H118.306C118.344 16.3554 118.415 16.3042 118.504 16.3041C118.542 16.3041 118.576 16.3159 118.607 16.3334C118.609 16.3334 118.61 16.3327 118.61 16.3324L121.077 17.5766C121.079 17.5793 121.083 17.5803 121.087 17.5805L121.092 17.5834V17.5873C121.169 17.6232 121.22 17.6984 121.22 17.7895C121.22 17.8264 121.21 17.8601 121.195 17.892L121.198 17.8939C121.146 17.9915 121.102 18.0887 121.047 18.1879C120.279 19.5348 118.68 21.0585 115.389 21.0697H115.354C112.065 21.0585 110.466 19.5348 109.698 18.1879C108.893 16.7759 108.86 15.2862 108.86 14.9838V10.4272C108.86 10.1269 108.892 8.63647 109.698 7.22403C110.466 5.87758 112.065 4.35526 115.354 4.34219H115.371C115.382 4.34219 115.384 4.34201 115.389 4.34317ZM141.541 0.00722947C141.715 -0.0330588 141.881 0.100152 141.881 0.27969V4.62735H145.686C145.844 4.62741 145.972 4.75638 145.972 4.91543V7.19278C145.972 7.35162 145.844 7.4808 145.686 7.48086H141.881V14.9877C141.881 14.9877 141.922 16.0227 141.934 16.4135C141.936 16.4823 141.948 16.548 141.956 16.6156C142.002 16.9837 142.194 17.3468 142.484 17.5785C142.998 17.9886 143.75 17.9107 144.364 17.8686C144.938 17.8294 145.508 17.7406 146.074 17.6342C146.226 17.6059 146.372 17.7083 146.398 17.8617L146.798 20.2328C146.82 20.36 146.752 20.4862 146.634 20.5365C146.313 20.6738 145.977 20.7763 145.637 20.852C144.821 21.033 143.977 21.0676 143.144 21.0697C142.314 21.072 141.446 21.0185 140.684 20.6566C140.002 20.3327 139.428 19.8209 139.07 19.1508C138.696 18.4519 138.536 17.6455 138.536 16.8559V7.48086H136.482C136.324 7.48086 136.196 7.35166 136.196 7.19278V4.91543C136.196 4.75634 136.324 4.62735 136.482 4.62735H138.536V0.930081C138.536 0.800133 138.626 0.687824 138.751 0.658597L141.541 0.00722947ZM151.124 4.86075C152.339 4.35884 153.676 4.27271 154.972 4.38614C156.132 4.48735 157.266 4.86878 158.261 5.47793C158.752 5.77863 159.204 6.13777 159.619 6.53653C159.703 6.61699 159.711 6.74933 159.64 6.84121L158.095 8.84024C158.019 8.93834 157.879 8.95829 157.781 8.88321C156.772 8.11277 155.517 7.38099 154.218 7.30606C153.685 7.27537 153.135 7.3124 152.63 7.517C152.287 7.65633 151.947 7.87992 151.736 8.19668C151.381 8.72972 151.532 9.44908 151.941 9.90371C152.341 10.3494 152.901 10.574 153.446 10.7826C153.847 10.9363 154.251 11.082 154.659 11.2162C155.986 11.6524 157.483 12.1861 158.55 13.1059C158.963 13.4616 159.301 13.9068 159.551 14.393C159.814 14.9051 159.925 15.4683 159.958 16.0404C160.027 17.2213 159.618 18.4038 158.827 19.2797C158.02 20.1742 156.869 20.6754 155.709 20.9057C155.212 21.0044 154.705 21.0589 154.198 21.0678C153.551 21.0792 152.902 21.0377 152.265 20.9193C151.079 20.6995 149.901 20.2251 149.026 19.3695C148.441 18.7984 147.968 18.1113 147.644 17.3588C147.595 17.247 147.641 17.1159 147.749 17.0609L150.04 15.8988C150.142 15.8475 150.266 15.8791 150.329 15.974C150.71 16.5472 151.161 17.0726 151.713 17.4789C152.488 18.0497 153.392 18.2369 154.301 18.227C155.093 18.2182 155.89 17.9419 156.324 17.2279C156.403 17.0976 156.464 16.9553 156.504 16.808C156.84 15.5744 155.821 14.9693 154.947 14.6049C154.522 14.4282 153.276 13.9962 152.84 13.85C152.22 13.6419 150.998 13.1738 150.508 12.8617C150.075 12.5863 149.653 12.3277 149.295 11.9555C148.912 11.557 148.599 11.0755 148.407 10.5502C147.999 9.42938 148.09 8.11422 148.629 7.05313C149.148 6.03276 150.084 5.29051 151.124 4.86075ZM124.019 5.45645C124.996 5.03541 128.925 3.56763 131.867 4.78262C134.763 5.97814 135.399 8.98609 135.401 10.2699C135.404 10.3065 135.404 10.3421 135.404 10.3793V12.0434H135.401V20.5492C135.392 20.672 135.295 20.7719 135.171 20.7719C135.168 20.7718 135.165 20.7689 135.163 20.7689V20.7738H132.698V20.7689C132.69 20.7689 132.686 20.7719 132.683 20.7719C132.56 20.7717 132.461 20.6733 132.455 20.5492V20.5473C132.455 20.5447 132.454 20.543 132.453 20.5404C132.453 20.5399 132.455 20.5372 132.455 20.5355V19.7699C131.609 20.4301 130.406 21.0558 128.679 21.0629H128.65C125.684 21.0496 124.249 19.6122 123.553 18.3402C122.829 17.006 122.798 15.5957 122.798 15.3139V15.309C122.798 15.0238 122.829 13.6158 123.553 12.2816C124.249 11.0086 125.684 9.57039 128.65 9.55899H128.679C130.337 9.56521 131.512 10.1532 132.354 10.7709V10.1664C132.352 9.66604 132.279 8.15399 130.76 7.45645C128.972 6.63555 126.051 7.6233 124.974 8.18496L124.97 8.18301C124.945 8.19541 124.918 8.20153 124.887 8.20157C124.79 8.20157 124.709 8.14045 124.678 8.05313C124.675 8.05313 124.671 8.05349 124.67 8.05606L123.877 5.7836C123.879 5.78348 123.879 5.78067 123.882 5.78067C123.866 5.74835 123.854 5.714 123.854 5.67422C123.854 5.56999 123.925 5.48418 124.019 5.4584V5.45645ZM129.214 12.225C126.5 12.2347 126.057 14.4798 126.057 15.1225V15.3842C126.057 16.0253 126.5 18.2728 129.214 18.2836C131.928 18.2727 132.371 16.0253 132.371 15.3842V15.1225C132.371 14.4798 131.927 12.2349 129.214 12.225ZM115.373 7.19668C112.587 7.20728 112.13 9.59749 112.13 10.2807V10.8998H118.551C118.619 10.0754 118.551 9.59429 118.309 8.97403C117.966 8.0974 117.095 7.20394 115.373 7.19668Z" fill="var(--fill-0, #935227)"/>
<path id="Fill 7" fill-rule="evenodd" clip-rule="evenodd" d="M68.3181 15.3847C68.3181 16.0258 67.8743 18.2728 65.1607 18.2836C62.4465 18.2728 62.0037 16.0258 62.0037 15.3847V15.1227C62.0037 14.4804 62.4465 12.235 65.1607 12.2252C67.8743 12.235 68.3181 14.4804 68.3181 15.1227V15.3847ZM71.3469 10.2698C71.3455 8.98593 70.7092 5.97852 67.814 4.78303C64.8712 3.56803 60.943 5.03565 59.9659 5.45669V5.45876C59.8718 5.48448 59.8006 5.56993 59.8006 5.67426C59.8006 5.71408 59.8131 5.74851 59.8286 5.78086C59.8257 5.78086 59.8257 5.78335 59.8239 5.78335L60.6166 8.05654C60.6166 8.05343 60.6216 8.05343 60.6245 8.05343C60.6554 8.14074 60.7365 8.20131 60.8333 8.20131C60.8644 8.20131 60.8918 8.19571 60.9167 8.18326L60.9204 8.18451C61.9973 7.62285 64.9187 6.636 66.7063 7.45692C68.4422 8.25399 68.2907 10.114 68.3008 10.3135V10.3795V10.7705C67.4592 10.1528 66.2846 9.5648 64.6261 9.55858H64.6107H64.5963C61.6304 9.56999 60.1957 11.0082 59.4997 12.2812C58.7755 13.6155 58.7446 15.0236 58.7446 15.3087V15.3143C58.7446 15.5962 58.7755 17.0058 59.4997 18.34C60.1957 19.612 61.6304 21.05 64.5963 21.0633H64.6107H64.6261C66.3528 21.0562 67.556 20.4305 68.4023 19.7703V20.5352C68.4023 20.5369 68.3998 20.5394 68.3998 20.54C68.3998 20.5429 68.4023 20.5445 68.4023 20.5472V20.5493C68.4083 20.6735 68.5071 20.7716 68.6298 20.7716C68.6327 20.7716 68.6364 20.7692 68.6447 20.7692V20.7737H71.1101V20.7692C71.1124 20.7692 71.1149 20.7716 71.118 20.7716C71.2423 20.7716 71.3387 20.6721 71.3469 20.5493V12.0429H71.3502V10.3795C71.3502 10.3422 71.3502 10.3065 71.3469 10.2698V10.2698Z" fill="var(--fill-0, #FFB700)"/>
<path id="Fill 11" fill-rule="evenodd" clip-rule="evenodd" d="M86.9212 10.4186C86.9212 10.117 86.893 8.62724 86.1687 7.21376C85.4729 5.86644 84.0354 4.34448 81.0728 4.33432V4.33142C81.0671 4.33142 81.065 4.33432 81.0541 4.33432C81.0522 4.33432 81.0471 4.33142 81.0395 4.33142V4.33432C79.0913 4.33951 77.8065 5.13927 76.9555 5.97077V4.87856H76.952C76.9555 4.87358 76.9555 4.86964 76.9555 4.86508C76.9555 4.74022 76.8548 4.63879 76.7333 4.63568C76.7333 4.63527 76.7333 4.63423 76.7351 4.63299H74.1181V4.63568C73.9921 4.63879 73.8953 4.74022 73.8953 4.86508C73.8953 4.86964 73.8982 4.87358 73.8982 4.87856H73.8953V20.5494H73.8982C73.908 20.6662 74.0024 20.7606 74.1224 20.7606C74.1271 20.7606 74.1327 20.7579 74.1378 20.7579V20.7629H76.9338V20.7606C77.0545 20.7606 77.1511 20.6662 77.1591 20.5471H77.1618V20.5326V20.5304V20.5289V10.1156C77.2304 9.27871 77.8022 7.20961 80.3964 7.19924C83.1862 7.21023 83.64 9.59936 83.64 10.2834V20.5119H83.645C83.645 20.5179 83.64 20.5206 83.64 20.5254C83.64 20.6529 83.7451 20.756 83.8692 20.756H83.877H86.6942H86.6961H86.7045V20.7539C86.8291 20.7483 86.9212 20.6494 86.9212 20.5254V20.5133V20.5119V10.4186Z" fill="var(--fill-0, #88CC2F)"/>
<path id="Fill 13" fill-rule="evenodd" clip-rule="evenodd" d="M98.8195 10.3188C98.8195 10.9466 98.3638 13.2285 95.5769 13.2387C92.7869 13.2285 92.3342 10.9466 92.3342 10.3188V10.1141C92.3342 9.48479 92.7869 7.20144 95.5769 7.19252C98.3638 7.20144 98.8195 9.48479 98.8195 10.1141V10.3188ZM103.89 4.65136C103.89 4.52858 103.793 4.42861 103.673 4.42342V4.42031C101.995 4.37282 100.907 5.07116 100.207 5.84022C99.2655 5.01599 97.8148 4.35062 95.5966 4.34295V4.3417H95.5769H95.559V4.34295C92.2696 4.35498 90.6717 5.80413 89.9007 7.08985C89.0984 8.43821 89.062 9.85833 89.062 10.1443V10.2995C89.062 10.5878 89.0984 12.0083 89.9036 13.3533C90.2462 13.9297 90.7596 14.5366 91.5149 15.0352C90.2769 15.7528 89.1833 17.0193 89.1833 19.3059V20.506V20.5097C89.1833 20.6342 89.2784 20.7329 89.4022 20.7383V20.7412V20.7431H98.8123C99.9436 20.7431 100.515 21.4943 100.674 22.2001C100.875 23.0947 100.533 24.3074 99.0267 25.12C99.0291 25.1241 99.0291 25.1256 99.0308 25.1268C98.9422 25.1579 98.8726 25.2421 98.8726 25.3429C98.8726 25.3869 98.8893 25.4265 98.9093 25.4597H98.9037L100.133 27.7122C100.136 27.7109 100.139 27.7122 100.139 27.7109C100.175 27.7887 100.252 27.8418 100.342 27.8418C100.377 27.8418 100.41 27.8339 100.441 27.8198V27.8217C103.289 26.3576 103.911 23.603 103.459 21.57C102.965 19.3561 101.099 17.869 98.8123 17.869L92.311 18.025C92.6687 16.0469 94.9597 16.0839 95.2348 16.0953L95.232 16.0901C95.3413 16.094 95.4457 16.1005 95.559 16.1005H95.5769H95.5966C98.8856 16.0901 100.481 14.6397 101.251 13.3533C102.055 12.0083 102.091 10.5878 102.091 10.2995V10.1443C102.091 9.89981 102.063 8.84846 101.568 7.71373C101.999 7.41258 102.669 7.13424 103.654 7.18733C103.656 7.18733 103.658 7.19045 103.662 7.19045C103.784 7.19045 103.883 7.09172 103.89 6.9737V4.66277V4.66173V4.65136Z" fill="var(--fill-0, #31B4DD)"/>
<path id="Fill 15" fill-rule="evenodd" clip-rule="evenodd" d="M53.7901 15.1195C53.7901 15.8036 53.3355 18.1921 50.5486 18.2022C47.7604 18.1921 47.3065 15.8036 47.3065 15.1195V10.2936C47.3065 9.60954 47.7604 7.22207 50.5486 7.21212C53.3355 7.22207 53.7901 9.60954 53.7901 10.2936V15.1195ZM56.316 7.22436C55.6228 5.87766 54.1855 4.35487 51.2242 4.34305V4.34181H51.2052H51.19V4.34305C49.2362 4.35052 47.9437 5.15567 47.0944 5.9936V4.86821H47.0928C47.0928 4.8651 47.0944 4.8651 47.0944 4.8651C47.0944 4.73713 46.99 4.63529 46.8648 4.63529C46.8603 4.63529 46.8554 4.63882 46.851 4.63882C46.851 4.6357 46.851 4.63425 46.8529 4.63301H44.275C44.275 4.63425 44.2781 4.6357 44.2781 4.63882C44.2731 4.63882 44.2678 4.63529 44.2628 4.63529C44.1356 4.63529 44.0328 4.73713 44.0328 4.8651C44.0328 4.8651 44.0351 4.8651 44.0351 4.86821H44.0328V27.2213L44.0351 27.2228C44.0407 27.3454 44.1372 27.4449 44.2628 27.4449H44.2731H47.0623H47.0751H47.0846H47.1049V27.4387C47.2126 27.4242 47.294 27.3391 47.2993 27.2303C47.3014 27.2303 47.3014 27.2271 47.3014 27.2271V27.217C47.3014 27.2145 47.3035 27.2145 47.3035 27.2145C47.3035 27.2145 47.3014 27.2145 47.3014 27.2124V19.6138C48.1533 20.3572 49.3865 21.0632 51.19 21.0694H51.2052H51.2242C54.1855 21.0584 55.6228 19.5352 56.316 18.1883C57.0429 16.7757 57.0727 15.285 57.0727 14.9835V10.4271C57.0727 10.1274 57.0429 8.63701 56.316 7.22436V7.22436Z" fill="var(--fill-0, #F7552F)"/>
</g>
</svg>
