<svg preserveAspectRatio="none" width="100%" height="100%" overflow="visible" style="display: block;" viewBox="0 0 14 17" fill="none" xmlns="http://www.w3.org/2000/svg">
<path id="icon" fill-rule="evenodd" clip-rule="evenodd" d="M11.625 1.57123C10.5154 1.94135 9.75 2.98424 9.75 4.17497V9.24622C9.75 9.45333 9.91789 9.62122 10.125 9.62122H11.625V1.57123ZM11.625 11.1212V15.6212C11.625 16.0354 11.9608 16.3712 12.375 16.3712C12.7892 16.3712 13.125 16.0354 13.125 15.6212V1.2748C13.125 0.459579 12.3701 -0.145984 11.5743 0.0308617C9.63195 0.462493 8.25 2.18525 8.25 4.17497V9.24622C8.25 10.2818 9.08947 11.1212 10.125 11.1212H11.625ZM3.375 0.621277C3.78921 0.621277 4.125 0.957063 4.125 1.37128V4.74628C4.125 5.16049 3.78921 5.49628 3.375 5.49628C2.96079 5.49628 2.625 5.16049 2.625 4.74628V1.37128C2.625 0.957063 2.96079 0.621277 3.375 0.621277ZM0.75 0.621277C1.16421 0.621277 1.5 0.957063 1.5 1.37128V5.87128C1.5 6.28549 1.83579 6.62128 2.25 6.62128H3.375H4.5C4.91421 6.62128 5.25 6.28549 5.25 5.87128V1.37128C5.25 0.957063 5.58579 0.621277 6 0.621277C6.41421 0.621277 6.75 0.957063 6.75 1.37128V5.87128C6.75 7.11392 5.74264 8.12128 4.5 8.12128H4.125L4.125 15.6213C4.125 16.0355 3.78921 16.3713 3.375 16.3713C2.96079 16.3713 2.625 16.0355 2.625 15.6213L2.625 8.12128H2.25C1.00736 8.12128 0 7.11392 0 5.87128V1.37128C0 0.957063 0.335786 0.621277 0.75 0.621277Z" fill="var(--fill-0, white)"/>
</svg>
