<svg preserveAspectRatio="none" width="100%" height="100%" overflow="visible" style="display: block;" viewBox="0 0 24 38" fill="none" xmlns="http://www.w3.org/2000/svg">
<g id="Illustration" clip-path="url(#clip0_198_2809)">
<path id="Vector" d="M11.9995 19.1289L18.404 20.8243L20.2193 37.8349H3.42725L5.59499 20.8243L11.9995 19.1289Z" fill="var(--fill-0, #10C2F9)"/>
<path id="Vector_2" d="M18.4023 20.8258C20.9472 21.499 22.766 23.7373 22.907 26.3632L23.3864 35.2915H19.9462L18.4023 20.8223V20.8258Z" fill="var(--fill-0, #10C2F9)"/>
<path id="Vector_3" d="M5.59383 20.8258C3.02779 21.5061 1.1526 23.7055 0.89177 26.3491L0 35.2915H4.29318L5.59735 20.8223L5.59383 20.8258Z" fill="var(--fill-0, #10C2F9)"/>
<path id="Vector_4" d="M11.9991 16.8702C16.5108 16.8702 20.1695 13.2115 20.1695 8.69974C20.1695 4.18802 16.5108 0.529297 11.9991 0.529297C7.48734 0.529297 3.82861 4.18802 3.82861 8.69974C3.82861 13.2115 7.48734 16.8702 11.9991 16.8702Z" fill="var(--fill-0, #331F16)"/>
<path id="Vector_5" fill-rule="evenodd" clip-rule="evenodd" d="M11.9983 3.48438C7.88132 3.48438 4.54688 6.24428 4.54688 10.3612V11.676C4.54688 15.7929 7.88484 19.1274 11.9983 19.1274C16.1117 19.1274 19.4496 15.7894 19.4496 11.676V10.3612C19.4496 6.24428 16.1117 3.48438 11.9983 3.48438Z" fill="var(--fill-0, #FFC7B8)"/>
<path id="Vector_6" d="M13.8808 17.5H10.1128V19.6642C10.1128 20.704 10.9552 21.55 11.9986 21.55C13.0419 21.55 13.8843 20.7076 13.8843 19.6642V17.5H13.8808Z" fill="var(--fill-0, #FFC7B8)"/>
<path id="Vector_7" d="M13.9995 12.7459C14.4613 12.7459 14.8384 12.3299 14.8384 11.8153C14.8384 11.3007 14.4613 10.8848 13.9995 10.8848C13.5378 10.8848 13.1606 11.3007 13.1606 11.8153C13.1606 12.3299 13.5378 12.7459 13.9995 12.7459Z" fill="var(--fill-0, black)"/>
<path id="Vector_8" d="M9.9971 12.7459C10.4588 12.7459 10.836 12.3299 10.836 11.8153C10.836 11.3007 10.4588 10.8848 9.9971 10.8848C9.53536 10.8848 9.1582 11.3007 9.1582 11.8153C9.1582 12.3299 9.53536 12.7459 9.9971 12.7459Z" fill="var(--fill-0, black)"/>
<path id="Vector_9" d="M10.585 14.8809C10.585 14.8809 11.0115 15.2369 11.9984 15.2369C12.9853 15.2369 13.4118 14.8809 13.4118 14.8809" stroke="var(--stroke-0, #BC2A2A)" stroke-width="0.704956" stroke-miterlimit="10" stroke-linecap="round"/>
<path id="Vector_10" fill-rule="evenodd" clip-rule="evenodd" d="M20.6988 8.69916C20.6988 3.89488 16.8039 0 11.9996 0C7.19536 0 3.30048 3.89488 3.30048 8.69916C3.30048 11.0326 3.86092 12.6293 4.23807 13.44C4.36496 13.7114 4.74564 13.7184 4.87958 13.4541L5.07697 13.0664C5.3378 12.5553 5.52814 12.0089 5.64798 11.4485L6.21899 8.75556C6.35294 8.11757 6.86755 7.6241 7.51259 7.52893C8.72159 7.34917 10.209 7.21875 11.9996 7.21875C13.7902 7.21875 15.2565 7.34564 16.4655 7.52541C17.1106 7.62058 17.6252 8.11405 17.7627 8.75203L18.3337 11.4414C18.4535 12.0089 18.6509 12.5588 18.9153 13.0769L19.1126 13.4611C19.2466 13.722 19.6237 13.7184 19.7506 13.4541C20.1313 12.6504 20.7023 11.0467 20.7023 8.70268" fill="var(--fill-0, #10C2F9)"/>
<path id="Vector_11" fill-rule="evenodd" clip-rule="evenodd" d="M10.6814 0.0986939C9.93063 1.54385 9.37724 4.18392 9.21158 7.32802C10.0469 7.25752 10.9704 7.21523 11.9997 7.21523C13.0289 7.21523 13.9559 7.25752 14.7878 7.32802C14.6221 4.18392 14.0687 1.54385 13.3179 0.0986939C12.8879 0.031723 12.4473 0 11.9997 0C11.552 0 11.1114 0.0352478 10.6814 0.0986939Z" fill="var(--fill-0, #A8DCEF)"/>
<path id="Vector_12" fill-rule="evenodd" clip-rule="evenodd" d="M9.51406 7.94745C9.51406 7.94745 8.35441 10.9083 5.76369 10.9083L6.53209 8.0955L9.51758 7.94745H9.51406Z" fill="var(--fill-0, black)"/>
<path id="Vector_13" fill-rule="evenodd" clip-rule="evenodd" d="M17.3802 8.0955L14.3947 7.94745C14.3947 7.94745 15.5544 10.9083 18.1451 10.9083" fill="var(--fill-0, black)"/>
<path id="Vector_14" d="M4.23584 13.4361C4.36273 13.7075 4.74341 13.7145 4.87735 13.4502L5.07474 13.0625C5.33557 12.5514 5.52591 12.005 5.64575 11.4446L6.21677 8.75165C6.35071 8.11366 6.86533 7.62019 7.51036 7.52502C8.71936 7.34526 10.2068 7.21484 11.9974 7.21484C13.788 7.21484 15.2543 7.34174 16.4633 7.5215C17.1083 7.61667 17.623 8.11014 17.7604 8.74812L18.3314 11.4375C18.4513 12.005 18.6487 12.5549 18.913 13.073L19.1104 13.4572C19.2444 13.7181 19.6215 13.7145 19.7484 13.4502" stroke="var(--stroke-0, #415E7C)" stroke-width="1.62492" stroke-linecap="round" stroke-linejoin="round"/>
</g>
<defs>
<clipPath id="clip0_198_2809">
<rect width="23.3869" height="37.835" fill="white"/>
</clipPath>
</defs>
</svg>
