<svg preserveAspectRatio="none" width="100%" height="100%" overflow="visible" style="display: block;" viewBox="0 0 16 13" fill="none" xmlns="http://www.w3.org/2000/svg">
<path id="icon" fill-rule="evenodd" clip-rule="evenodd" d="M7.33333 0.666667C7.33333 0.298477 7.63181 0 8 0H10.7905C11.401 0 11.9305 0.414056 12.0815 1H14.3333C14.8856 1 15.3333 1.44772 15.3333 2V4.33333C15.3333 4.88562 14.8856 5.33333 14.3333 5.33333H12.9796L13.463 7.66977C14.8756 7.73741 16 8.904 16 10.3333C16 11.8061 14.8061 13 13.3333 13C12.0908 13 11.0467 12.1502 10.7507 11H7.33333H5.24932C4.9533 12.1502 3.90924 13 2.66667 13C1.1939 13 0 11.8061 0 10.3333C0 10.3224 0.000262024 10.3116 0.000780121 10.3008C0.000261931 10.2895 0 10.2781 0 10.2667V7C0 6.26362 0.596954 5.66667 1.33333 5.66667H6C6.73638 5.66667 7.33333 6.26362 7.33333 7V9.66667H10.7507C10.9461 8.90722 11.4677 8.27872 12.1572 7.93935L10.7905 1.33333H8C7.63181 1.33333 7.33333 1.03486 7.33333 0.666667ZM12.1784 9.66667C12.2499 9.54307 12.3406 9.43202 12.4465 9.33762L12.4465 9.33764C12.6822 9.12762 12.9929 9 13.3333 9C13.4796 9 13.6204 9.02356 13.7521 9.0671C14.2834 9.24269 14.6667 9.74322 14.6667 10.3333C14.6667 11.0697 14.0697 11.6667 13.3333 11.6667C12.8398 11.6667 12.4089 11.3985 12.1784 11C12.0649 10.8039 12 10.5762 12 10.3333C12 10.0905 12.0649 9.86278 12.1784 9.66667H12.1784ZM2.66667 11.6667C2.17314 11.6667 1.74224 11.3985 1.51171 11H3.82163C3.59109 11.3985 3.1602 11.6667 2.66667 11.6667ZM4.66667 9.66667H1.33333V7H6V9.66667H4.66667ZM12.7038 4L12.3589 2.33333H14V4H12.7038ZM2.66667 3.66667C2.29848 3.66667 2 3.96514 2 4.33333C2 4.70152 2.29848 5 2.66667 5H6C6.36819 5 6.66667 4.70152 6.66667 4.33333C6.66667 3.96514 6.36819 3.66667 6 3.66667H2.66667Z" fill="var(--fill-0, white)"/>
</svg>
