<svg preserveAspectRatio="none" width="100%" height="100%" overflow="visible" style="display: block;" viewBox="0 0 60 27" fill="none" xmlns="http://www.w3.org/2000/svg">
<g id="Combined Shape">
<mask id="path-1-inside-1_114_279" fill="white">
<path fill-rule="evenodd" clip-rule="evenodd" d="M4.5 18C4.5 20.4813 6.5187 22.5 9 22.5C11.4813 22.5 13.5 20.4813 13.5 18C13.5 15.5188 11.4813 13.5 9 13.5C6.5187 13.5 4.5 15.5188 4.5 18ZM4.5 10.2078C5.8248 9.4401 7.362 9 9 9C13.9626 9 18 13.0374 18 18C18 22.9627 13.9626 27 9 27C7.362 27 5.8248 26.5599 4.5 25.7922V27H0V0H4.5V10.2078ZM29 9V13.5C26.5187 13.5 24.5 15.5188 24.5 18V27H20V9H24.5V10.2078C25.8248 9.4401 27.362 9 29 9ZM34 13C35.1049 13 36 12.1049 36 11C36 9.8952 35.1049 9 34 9C32.8952 9 32 9.8952 32 11C32 12.1049 32.8952 13 34 13ZM36 27V18.2C36 16.9847 35.1049 16 34 16C32.8952 16 32 16.9847 32 18.2V27H36ZM60 11C60 12.1049 59.1048 13 58 13C56.8951 13 56 12.1049 56 11C56 9.8952 56.8951 9 58 9C59.1048 9 60 9.8952 60 11ZM60 27V18.2C60 16.9847 59.1048 16 58 16C56.8951 16 56 16.9847 56 18.2V27H60ZM40 27H44V0H40V27ZM52 27H48V0H52V27Z"/>
</mask>
<path fill-rule="evenodd" clip-rule="evenodd" d="M4.5 18C4.5 20.4813 6.5187 22.5 9 22.5C11.4813 22.5 13.5 20.4813 13.5 18C13.5 15.5188 11.4813 13.5 9 13.5C6.5187 13.5 4.5 15.5188 4.5 18ZM4.5 10.2078C5.8248 9.4401 7.362 9 9 9C13.9626 9 18 13.0374 18 18C18 22.9627 13.9626 27 9 27C7.362 27 5.8248 26.5599 4.5 25.7922V27H0V0H4.5V10.2078ZM29 9V13.5C26.5187 13.5 24.5 15.5188 24.5 18V27H20V9H24.5V10.2078C25.8248 9.4401 27.362 9 29 9ZM34 13C35.1049 13 36 12.1049 36 11C36 9.8952 35.1049 9 34 9C32.8952 9 32 9.8952 32 11C32 12.1049 32.8952 13 34 13ZM36 27V18.2C36 16.9847 35.1049 16 34 16C32.8952 16 32 16.9847 32 18.2V27H36ZM60 11C60 12.1049 59.1048 13 58 13C56.8951 13 56 12.1049 56 11C56 9.8952 56.8951 9 58 9C59.1048 9 60 9.8952 60 11ZM60 27V18.2C60 16.9847 59.1048 16 58 16C56.8951 16 56 16.9847 56 18.2V27H60ZM40 27H44V0H40V27ZM52 27H48V0H52V27Z" fill="var(--fill-0, #F75050)"/>
<path d="M4.5 10.2078H4V11.0754L4.75069 10.6404L4.5 10.2078ZM4.5 25.7922L4.75069 25.3596L4 24.9246V25.7922H4.5ZM4.5 27V27.5H5V27H4.5ZM0 27H-0.5V27.5H0V27ZM0 0V-0.5H-0.5V0H0ZM4.5 0H5V-0.5H4.5V0ZM29 13.5V14H29.5V13.5H29ZM29 9H29.5V8.5H29V9ZM24.5 27V27.5H25V27H24.5ZM20 27H19.5V27.5H20V27ZM20 9V8.5H19.5V9H20ZM24.5 9H25V8.5H24.5V9ZM24.5 10.2078H24V11.0754L24.7507 10.6404L24.5 10.2078ZM36 27V27.5H36.5V27H36ZM32 27H31.5V27.5H32V27ZM60 27V27.5H60.5V27H60ZM56 27H55.5V27.5H56V27ZM44 27V27.5H44.5V27H44ZM40 27H39.5V27.5H40V27ZM44 0H44.5V-0.5H44V0ZM40 0V-0.5H39.5V0H40ZM48 27H47.5V27.5H48V27ZM52 27V27.5H52.5V27H52ZM48 0V-0.5H47.5V0H48ZM52 0H52.5V-0.5H52V0ZM9 22.5V22C6.79484 22 5 20.2052 5 18H4.5H4C4 20.7574 6.24256 23 9 23V22.5ZM13.5 18H13C13 20.2052 11.2052 22 9 22V22.5V23C11.7574 23 14 20.7574 14 18H13.5ZM9 13.5V14C11.2052 14 13 15.7949 13 18H13.5H14C14 15.2427 11.7574 13 9 13V13.5ZM4.5 18H5C5 15.7949 6.79485 14 9 14V13.5V13C6.24255 13 4 15.2427 4 18H4.5ZM9 9V8.5C7.27131 8.5 5.64796 8.96469 4.24931 9.77519L4.5 10.2078L4.75069 10.6404C6.00164 9.91551 7.45269 9.5 9 9.5V9ZM18 18H18.5C18.5 12.7613 14.2387 8.5 9 8.5V9V9.5C13.6865 9.5 17.5 13.3135 17.5 18H18ZM9 27V27.5C14.2387 27.5 18.5 23.2388 18.5 18H18H17.5C17.5 22.6865 13.6865 26.5 9 26.5V27ZM4.5 25.7922L4.24931 26.2248C5.64796 27.0353 7.27131 27.5 9 27.5V27V26.5C7.45269 26.5 6.00164 26.0845 4.75069 25.3596L4.5 25.7922ZM4.5 27H5V25.7922H4.5H4V27H4.5ZM0 27V27.5H4.5V27V26.5H0V27ZM0 0H-0.5V27H0H0.5V0H0ZM4.5 0V-0.5H0V0V0.5H4.5V0ZM4.5 10.2078H5V0H4.5H4V10.2078H4.5ZM29 13.5H29.5V9H29H28.5V13.5H29ZM24.5 18H25C25 15.7949 26.7948 14 29 14V13.5V13C26.2426 13 24 15.2427 24 18H24.5ZM24.5 27H25V18H24.5H24V27H24.5ZM20 27V27.5H24.5V27V26.5H20V27ZM20 9H19.5V27H20H20.5V9H20ZM24.5 9V8.5H20V9V9.5H24.5V9ZM24.5 10.2078H25V9H24.5H24V10.2078H24.5ZM29 9V8.5C27.2713 8.5 25.648 8.96469 24.2493 9.77519L24.5 10.2078L24.7507 10.6404C26.0016 9.91551 27.4527 9.5 29 9.5V9ZM36 11H35.5C35.5 11.8287 34.8287 12.5 34 12.5V13V13.5C35.381 13.5 36.5 12.381 36.5 11H36ZM34 9V9.5C34.8287 9.5 35.5 10.1713 35.5 11H36H36.5C36.5 9.61907 35.381 8.5 34 8.5V9ZM32 11H32.5C32.5 10.1713 33.1713 9.5 34 9.5V9V8.5C32.6191 8.5 31.5 9.61906 31.5 11H32ZM34 13V12.5C33.1713 12.5 32.5 11.8287 32.5 11H32H31.5C31.5 12.381 32.6191 13.5 34 13.5V13ZM36 18.2H35.5V27H36H36.5V18.2H36ZM34 16V16.5C34.7849 16.5 35.5 17.2149 35.5 18.2H36H36.5C36.5 16.7545 35.4248 15.5 34 15.5V16ZM32 18.2H32.5C32.5 17.215 33.2151 16.5 34 16.5V16V15.5C32.5753 15.5 31.5 16.7545 31.5 18.2H32ZM32 27H32.5V18.2H32H31.5V27H32ZM36 27V26.5H32V27V27.5H36V27ZM58 13V13.5C59.3809 13.5 60.5 12.381 60.5 11H60H59.5C59.5 11.8287 58.8287 12.5 58 12.5V13ZM56 11H55.5C55.5 12.381 56.619 13.5 58 13.5V13V12.5C57.1713 12.5 56.5 11.8287 56.5 11H56ZM58 9V8.5C56.619 8.5 55.5 9.61907 55.5 11H56H56.5C56.5 10.1713 57.1713 9.5 58 9.5V9ZM60 11H60.5C60.5 9.61906 59.3809 8.5 58 8.5V9V9.5C58.8287 9.5 59.5 10.1713 59.5 11H60ZM60 18.2H59.5V27H60H60.5V18.2H60ZM58 16V16.5C58.7849 16.5 59.5 17.215 59.5 18.2H60H60.5C60.5 16.7545 59.4247 15.5 58 15.5V16ZM56 18.2H56.5C56.5 17.2149 57.2151 16.5 58 16.5V16V15.5C56.5752 15.5 55.5 16.7545 55.5 18.2H56ZM56 27H56.5V18.2H56H55.5V27H56ZM60 27V26.5H56V27V27.5H60V27ZM44 27V26.5H40V27V27.5H44V27ZM44 0H43.5V27H44H44.5V0H44ZM40 0V0.5H44V0V-0.5H40V0ZM40 27H40.5V0H40H39.5V27H40ZM48 27V27.5H52V27V26.5H48V27ZM48 0H47.5V27H48H48.5V0H48ZM52 0V-0.5H48V0V0.5H52V0ZM52 27H52.5V0H52H51.5V27H52Z" fill="var(--stroke-0, #40488B)" fill-opacity="0.1" style="mix-blend-mode:multiply" mask="url(#path-1-inside-1_114_279)"/>
</g>
</svg>
