<svg preserveAspectRatio="none" width="100%" height="100%" overflow="visible" style="display: block;" viewBox="0 0 352 158" fill="none" xmlns="http://www.w3.org/2000/svg">
<g id="Group 19">
<g id="Combined Shape">
<mask id="path-1-inside-1_114_260" fill="white">
<path fill-rule="evenodd" clip-rule="evenodd" d="M26.3107 105.333C26.3107 119.853 38.1136 131.667 52.6213 131.667C67.129 131.667 78.932 119.853 78.932 105.333C78.932 90.8136 67.129 78.9999 52.6213 78.9999C38.1136 78.9999 26.3107 90.8136 26.3107 105.333ZM26.3107 59.7345C34.0565 55.242 43.0443 52.6666 52.6213 52.6666C81.6367 52.6666 105.243 76.2929 105.243 105.333C105.243 134.374 81.6367 158 52.6213 158C43.0443 158 34.0565 155.424 26.3107 150.932V158H0V0H26.3107V59.7345ZM170.419 52.6666V78.9999C155.912 78.9999 144.109 90.8136 144.109 105.333V158H117.798V52.6666H144.109V59.7345C151.855 55.242 160.842 52.6666 170.419 52.6666ZM197.63 78.9999C204.897 78.9999 210.785 73.1071 210.785 65.8333C210.785 58.56 204.897 52.6666 197.63 52.6666C190.363 52.6666 184.475 58.56 184.475 65.8333C184.475 73.1071 190.363 78.9999 197.63 78.9999ZM197.63 92.1666C190.363 92.1666 184.475 98.06 184.475 105.333V158H210.785V105.333C210.785 98.06 204.897 92.1666 197.63 92.1666ZM352 65.8333C352 73.1071 346.112 78.9999 338.845 78.9999C331.577 78.9999 325.689 73.1071 325.689 65.8333C325.689 58.56 331.577 52.6666 338.845 52.6666C346.112 52.6666 352 58.56 352 65.8333ZM338.845 92.1666C331.577 92.1666 325.689 98.06 325.689 105.333V158H352V105.333C352 98.06 346.112 92.1666 338.845 92.1666ZM231.544 158H257.855V0.000105333H231.544V158ZM304.93 158H278.619V0.000105333H304.93V158Z"/>
</mask>
<path fill-rule="evenodd" clip-rule="evenodd" d="M26.3107 105.333C26.3107 119.853 38.1136 131.667 52.6213 131.667C67.129 131.667 78.932 119.853 78.932 105.333C78.932 90.8136 67.129 78.9999 52.6213 78.9999C38.1136 78.9999 26.3107 90.8136 26.3107 105.333ZM26.3107 59.7345C34.0565 55.242 43.0443 52.6666 52.6213 52.6666C81.6367 52.6666 105.243 76.2929 105.243 105.333C105.243 134.374 81.6367 158 52.6213 158C43.0443 158 34.0565 155.424 26.3107 150.932V158H0V0H26.3107V59.7345ZM170.419 52.6666V78.9999C155.912 78.9999 144.109 90.8136 144.109 105.333V158H117.798V52.6666H144.109V59.7345C151.855 55.242 160.842 52.6666 170.419 52.6666ZM197.63 78.9999C204.897 78.9999 210.785 73.1071 210.785 65.8333C210.785 58.56 204.897 52.6666 197.63 52.6666C190.363 52.6666 184.475 58.56 184.475 65.8333C184.475 73.1071 190.363 78.9999 197.63 78.9999ZM197.63 92.1666C190.363 92.1666 184.475 98.06 184.475 105.333V158H210.785V105.333C210.785 98.06 204.897 92.1666 197.63 92.1666ZM352 65.8333C352 73.1071 346.112 78.9999 338.845 78.9999C331.577 78.9999 325.689 73.1071 325.689 65.8333C325.689 58.56 331.577 52.6666 338.845 52.6666C346.112 52.6666 352 58.56 352 65.8333ZM338.845 92.1666C331.577 92.1666 325.689 98.06 325.689 105.333V158H352V105.333C352 98.06 346.112 92.1666 338.845 92.1666ZM231.544 158H257.855V0.000105333H231.544V158ZM304.93 158H278.619V0.000105333H304.93V158Z" fill="var(--fill-0, #F75050)"/>
<path d="M26.3107 59.7345H25.3107V61.4705L26.8124 60.5995L26.3107 59.7345ZM26.3107 150.932L26.8124 150.067L25.3107 149.196V150.932H26.3107ZM26.3107 158V159H27.3107V158H26.3107ZM0 158H-1V159H0V158ZM0 0V-1H-1V0H0ZM26.3107 0H27.3107V-1H26.3107V0ZM170.419 78.9999V79.9999H171.419V78.9999H170.419ZM170.419 52.6666H171.419V51.6666H170.419V52.6666ZM144.109 158V159H145.109V158H144.109ZM117.798 158H116.798V159H117.798V158ZM117.798 52.6666V51.6666H116.798V52.6666H117.798ZM144.109 52.6666H145.109V51.6666H144.109V52.6666ZM144.109 59.7345H143.109V61.4705L144.61 60.5995L144.109 59.7345ZM184.475 158H183.475V159H184.475V158ZM210.785 158V159H211.785V158H210.785ZM325.689 158H324.689V159H325.689V158ZM352 158V159H353V158H352ZM257.855 158V159H258.855V158H257.855ZM231.544 158H230.544V159H231.544V158ZM257.855 0.000105333H258.855V-0.999895H257.855V0.000105333ZM231.544 0.000105333V-0.999895H230.544V0.000105333H231.544ZM278.619 158H277.619V159H278.619V158ZM304.93 158V159H305.93V158H304.93ZM278.619 0.000105333V-0.999895H277.619V0.000105333H278.619ZM304.93 0.000105333H305.93V-0.999895H304.93V0.000105333ZM52.6213 131.667V130.667C38.6667 130.667 27.3107 119.302 27.3107 105.333H26.3107H25.3107C25.3107 120.405 37.5605 132.667 52.6213 132.667V131.667ZM78.932 105.333H77.932C77.932 119.302 66.5759 130.667 52.6213 130.667V131.667V132.667C67.6821 132.667 79.932 120.405 79.932 105.333H78.932ZM52.6213 78.9999V79.9999C66.5759 79.9999 77.932 91.3651 77.932 105.333H78.932H79.932C79.932 90.2621 67.6822 77.9999 52.6213 77.9999V78.9999ZM26.3107 105.333H27.3107C27.3107 91.3651 38.6667 79.9999 52.6213 79.9999V78.9999V77.9999C37.5605 77.9999 25.3107 90.2621 25.3107 105.333H26.3107ZM52.6213 52.6666V51.6666C42.8627 51.6666 33.7026 54.2913 25.809 58.8695L26.3107 59.7345L26.8124 60.5995C34.4105 56.1928 43.2258 53.6666 52.6213 53.6666V52.6666ZM105.243 105.333H106.243C106.243 75.7414 82.1898 51.6666 52.6213 51.6666V52.6666V53.6666C81.0837 53.6666 104.243 76.8444 104.243 105.333H105.243ZM52.6213 158V159C82.1898 159 106.243 134.926 106.243 105.333H105.243H104.243C104.243 133.823 81.0837 157 52.6213 157V158ZM26.3107 150.932L25.809 151.797C33.7026 156.375 42.8627 159 52.6213 159V158V157C43.2258 157 34.4105 154.474 26.8124 150.067L26.3107 150.932ZM26.3107 158H27.3107V150.932H26.3107H25.3107V158H26.3107ZM0 158V159H26.3107V158V157H0V158ZM0 0H-1V158H0H1V0H0ZM26.3107 0V-1H0V0V1H26.3107V0ZM26.3107 59.7345H27.3107V0H26.3107H25.3107V59.7345H26.3107ZM170.419 78.9999H171.419V52.6666H170.419H169.419V78.9999H170.419ZM144.109 105.333H145.109C145.109 91.3651 156.465 79.9999 170.419 79.9999V78.9999V77.9999C155.359 77.9999 143.109 90.2621 143.109 105.333H144.109ZM144.109 158H145.109V105.333H144.109H143.109V158H144.109ZM117.798 158V159H144.109V158V157H117.798V158ZM117.798 52.6666H116.798V158H117.798H118.798V52.6666H117.798ZM144.109 52.6666V51.6666H117.798V52.6666V53.6666H144.109V52.6666ZM144.109 59.7345H145.109V52.6666H144.109H143.109V59.7345H144.109ZM170.419 52.6666V51.6666C160.661 51.6666 151.501 54.2913 143.607 58.8695L144.109 59.7345L144.61 60.5995C152.209 56.1927 161.024 53.6666 170.419 53.6666V52.6666ZM210.785 65.8333H209.785C209.785 72.5556 204.344 77.9999 197.63 77.9999V78.9999V79.9999C205.45 79.9999 211.785 73.6586 211.785 65.8333H210.785ZM197.63 52.6666V53.6666C204.344 53.6666 209.785 59.1115 209.785 65.8333H210.785H211.785C211.785 58.0086 205.451 51.6666 197.63 51.6666V52.6666ZM184.475 65.8333H185.475C185.475 59.1115 190.916 53.6666 197.63 53.6666V52.6666V51.6666C189.81 51.6666 183.475 58.0086 183.475 65.8333H184.475ZM197.63 78.9999V77.9999C190.916 77.9999 185.475 72.5556 185.475 65.8333H184.475H183.475C183.475 73.6586 189.81 79.9999 197.63 79.9999V78.9999ZM184.475 105.333H185.475C185.475 98.6115 190.916 93.1666 197.63 93.1666V92.1666V91.1666C189.81 91.1666 183.475 97.5085 183.475 105.333H184.475ZM184.475 158H185.475V105.333H184.475H183.475V158H184.475ZM210.785 158V157H184.475V158V159H210.785V158ZM210.785 105.333H209.785V158H210.785H211.785V105.333H210.785ZM197.63 92.1666V93.1666C204.344 93.1666 209.785 98.6114 209.785 105.333H210.785H211.785C211.785 97.5086 205.451 91.1666 197.63 91.1666V92.1666ZM338.845 78.9999V79.9999C346.665 79.9999 353 73.6586 353 65.8333H352H351C351 72.5556 345.559 77.9999 338.845 77.9999V78.9999ZM325.689 65.8333H324.689C324.689 73.6586 331.024 79.9999 338.845 79.9999V78.9999V77.9999C332.13 77.9999 326.689 72.5556 326.689 65.8333H325.689ZM338.845 52.6666V51.6666C331.024 51.6666 324.689 58.0086 324.689 65.8333H325.689H326.689C326.689 59.1115 332.13 53.6666 338.845 53.6666V52.6666ZM352 65.8333H353C353 58.0086 346.665 51.6666 338.845 51.6666V52.6666V53.6666C345.559 53.6666 351 59.1115 351 65.8333H352ZM325.689 105.333H326.689C326.689 98.6114 332.13 93.1666 338.845 93.1666V92.1666V91.1666C331.024 91.1666 324.689 97.5086 324.689 105.333H325.689ZM325.689 158H326.689V105.333H325.689H324.689V158H325.689ZM352 158V157H325.689V158V159H352V158ZM352 105.333H351V158H352H353V105.333H352ZM338.845 92.1666V93.1666C345.559 93.1666 351 98.6115 351 105.333H352H353C353 97.5085 346.665 91.1666 338.845 91.1666V92.1666ZM257.855 158V157H231.544V158V159H257.855V158ZM257.855 0.000105333H256.855V158H257.855H258.855V0.000105333H257.855ZM231.544 0.000105333V1.00011H257.855V0.000105333V-0.999895H231.544V0.000105333ZM231.544 158H232.544V0.000105333H231.544H230.544V158H231.544ZM278.619 158V159H304.93V158V157H278.619V158ZM278.619 0.000105333H277.619V158H278.619H279.619V0.000105333H278.619ZM304.93 0.000105333V-0.999895H278.619V0.000105333V1.00011H304.93V0.000105333ZM304.93 158H305.93V0.000105333H304.93H303.93V158H304.93Z" fill="var(--stroke-0, #40488B)" fill-opacity="0.1" style="mix-blend-mode:multiply" mask="url(#path-1-inside-1_114_260)"/>
</g>
</g>
</svg>
