<svg width="160" height="28" viewBox="0 0 160 28" fill="none" xmlns="http://www.w3.org/2000/svg">
<path d="M6.52942 4.34277C9.82064 4.3548 11.4193 5.87791 12.1876 7.22461C12.2405 7.31988 12.2856 7.41419 12.3302 7.50781C12.3394 7.53738 12.3468 7.56651 12.3468 7.60059C12.3468 7.68845 12.299 7.76073 12.2277 7.80078V7.80371L9.7677 9.0957C9.7677 9.09394 9.76765 9.09644 9.76575 9.0957C9.73172 9.11243 9.69966 9.12295 9.66321 9.12305C9.56399 9.12305 9.4821 9.06023 9.44934 8.97461C9.06406 8.11574 8.2357 7.20355 6.51379 7.19629C3.72824 7.20689 3.27069 9.59713 3.27063 10.2803V15.1055C3.27063 15.7895 3.72806 18.1758 6.51379 18.1885C8.21161 18.1814 9.04144 17.2938 9.43372 16.4482V16.4434C9.43858 16.4374 9.44084 16.4305 9.44348 16.4258H9.44641C9.48466 16.356 9.55566 16.3048 9.64465 16.3047C9.68275 16.3047 9.71708 16.3166 9.74817 16.334C9.74938 16.3339 9.74991 16.3333 9.75012 16.333L12.2179 17.5762C12.22 17.5787 12.2233 17.5797 12.2277 17.5801L12.2325 17.584V17.5869C12.3092 17.6228 12.3605 17.6989 12.3605 17.79C12.3604 17.8267 12.3502 17.8598 12.3351 17.8916L12.338 17.8945C12.2861 17.9922 12.2428 18.0889 12.1876 18.1885C11.4193 19.5354 9.82064 21.0583 6.52942 21.0693H6.49426C3.20572 21.0583 1.60707 19.5354 0.838989 18.1885C0.0328117 16.7758 0.00012207 15.285 0.00012207 14.9834V10.4277C0.00012207 10.128 0.0328827 8.63722 0.838989 7.22461C1.60707 5.87791 3.20572 4.3548 6.49426 4.34277V4.3418H6.52942V4.34277ZM19.8654 4.34277C23.1564 4.3548 24.7543 5.87812 25.5216 7.22461C26.3277 8.63724 26.3615 10.128 26.3615 10.4277V14.9834C26.3615 15.285 26.3278 16.776 25.5216 18.1885C24.7543 19.5353 23.1562 21.0581 19.8654 21.0693H19.8292C16.54 21.058 14.9424 19.5352 14.172 18.1885C13.3687 16.776 13.3361 15.285 13.3361 14.9834V10.4277C13.3361 10.128 13.3687 8.63725 14.172 7.22461C14.9423 5.87818 16.5397 4.35494 19.8292 4.34277V4.3418H19.8654V4.34277ZM41.3282 4.63281C41.3282 4.63403 41.3286 4.63531 41.3273 4.63574C41.451 4.63723 41.5529 4.73895 41.5529 4.86523V20.5195C41.5529 20.5222 41.5558 20.5256 41.5558 20.5293C41.5556 20.6563 41.4509 20.7607 41.3273 20.7607H38.7365V20.7578C38.7312 20.7578 38.728 20.7606 38.7238 20.7607C38.6014 20.7607 38.5021 20.6604 38.4972 20.5352H38.4933V19.4189C37.6418 20.2588 36.3512 21.063 34.3966 21.0693H34.3615C31.4011 21.0583 29.961 19.5353 29.2697 18.1885C28.5436 16.7758 28.5118 15.285 28.5118 14.9834V4.8877H28.5148C28.5148 4.76201 28.6171 4.66113 28.7423 4.66113C28.744 4.66115 28.7441 4.66208 28.7472 4.66211L31.5587 4.65723V4.66211C31.5623 4.66208 31.5624 4.66113 31.5646 4.66113C31.6914 4.66116 31.797 4.76498 31.797 4.89355H31.7931V15.1182C31.7931 15.8034 32.2502 18.1916 35.0392 18.2012C37.8255 18.1915 38.2794 15.8034 38.2794 15.1182V10.4189H38.2872V4.88184C38.2872 4.87563 38.2843 4.86979 38.2843 4.86523C38.2843 4.75307 38.3634 4.66069 38.4689 4.63965L38.5148 4.63574V4.63281H41.3282ZM19.8497 7.19629C17.0631 7.20666 16.6067 9.59678 16.6066 10.2803V15.1055C16.6066 15.7897 17.0628 18.1762 19.8497 18.1885C22.6362 18.1761 23.0929 15.7897 23.0929 15.1055V10.2803C23.0928 9.59681 22.6359 7.20683 19.8497 7.19629Z" fill="#935227"/>
<path d="M115.389 4.34277C118.68 4.3546 120.292 5.87046 121.047 7.22461C121.451 7.94941 121.729 8.74387 121.861 9.56445C121.988 10.3573 121.948 11.162 121.944 11.9619C121.943 12.1876 121.941 12.414 121.939 12.6396C121.935 13.0605 121.596 13.3994 121.178 13.3994H112.139L112.13 13.1377V15.1055C112.13 15.7897 112.588 18.176 115.374 18.1885C117.071 18.1814 117.901 17.2941 118.293 16.4482V16.4434C118.299 16.4376 118.3 16.4307 118.303 16.4258H118.306C118.344 16.3559 118.416 16.3047 118.504 16.3047C118.543 16.3047 118.576 16.3164 118.607 16.334C118.61 16.334 118.61 16.332 118.61 16.332L121.078 17.5762C121.079 17.5789 121.083 17.5799 121.087 17.5801L121.092 17.584V17.5869C121.169 17.6228 121.22 17.6989 121.22 17.79C121.22 17.8267 121.21 17.8598 121.195 17.8916L121.198 17.8945C121.146 17.9922 121.103 18.0892 121.047 18.1885C120.279 19.5354 118.68 21.0581 115.389 21.0693H115.354C112.065 21.0581 110.467 19.5354 109.699 18.1885C108.893 16.7758 108.86 15.285 108.86 14.9834V10.4277C108.86 10.1277 108.893 8.63713 109.699 7.22461C110.467 5.87813 112.065 4.35486 115.354 4.3418H115.372C115.382 4.3418 115.384 4.34165 115.389 4.34277ZM141.542 0.0078125C141.715 -0.0325139 141.881 0.0999053 141.881 0.279297V4.62793H145.686C145.844 4.628 145.972 4.75679 145.972 4.91602V7.19238C145.972 7.35142 145.844 7.4804 145.686 7.48047H141.881V14.9883C141.881 14.9883 141.923 16.022 141.934 16.4131C141.936 16.4821 141.948 16.5484 141.957 16.6162C142.002 16.9843 142.194 17.3474 142.484 17.5791C142.998 17.9891 143.75 17.9103 144.364 17.8682C144.938 17.829 145.509 17.7402 146.075 17.6338C146.226 17.6056 146.372 17.7081 146.398 17.8613L146.798 20.2324C146.82 20.3597 146.752 20.4857 146.634 20.5361C146.313 20.6734 145.978 20.7768 145.637 20.8525C144.821 21.0336 143.977 21.0673 143.144 21.0693C142.314 21.0716 141.446 21.019 140.684 20.6572C140.002 20.3333 139.428 19.8215 139.07 19.1514C138.696 18.4525 138.537 17.6461 138.537 16.8564V7.48047H136.482C136.324 7.48047 136.196 7.35146 136.196 7.19238V4.91602C136.196 4.75675 136.324 4.62793 136.482 4.62793H138.537V0.930664C138.537 0.800643 138.626 0.687443 138.751 0.658203L141.542 0.0078125ZM151.125 4.86133C152.339 4.35944 153.676 4.27232 154.972 4.38574C156.133 4.48696 157.267 4.86839 158.261 5.47754C158.752 5.77827 159.205 6.13828 159.62 6.53711C159.703 6.61749 159.711 6.74903 159.64 6.84082L158.095 8.84082C158.019 8.93878 157.879 8.95785 157.781 8.88281C156.772 8.11245 155.518 7.38058 154.218 7.30566C153.685 7.27497 153.135 7.31293 152.63 7.51758C152.287 7.65695 151.947 7.88037 151.736 8.19727C151.381 8.73028 151.533 9.44869 151.941 9.90332C152.341 10.3492 152.901 10.5746 153.446 10.7832C153.847 10.9369 154.252 11.0826 154.66 11.2168C155.987 11.653 157.484 12.1866 158.55 13.1064C158.963 13.4621 159.301 13.9074 159.551 14.3936C159.814 14.9057 159.925 15.4689 159.958 16.041C160.028 17.222 159.618 18.4044 158.828 19.2803C158.02 20.1748 156.869 20.676 155.709 20.9062C155.212 21.005 154.706 21.0585 154.199 21.0674C153.552 21.0788 152.902 21.0383 152.265 20.9199C151.079 20.7001 149.902 20.2257 149.026 19.3701C148.441 18.7989 147.969 18.111 147.644 17.3584C147.596 17.2468 147.642 17.1165 147.75 17.0615L150.041 15.8994C150.142 15.848 150.267 15.8797 150.33 15.9746C150.71 16.5477 151.162 17.0733 151.713 17.4795C152.489 18.0503 153.393 18.2365 154.301 18.2266C155.093 18.2178 155.89 17.9423 156.325 17.2285C156.404 17.0981 156.464 16.9551 156.504 16.8076C156.84 15.5741 155.821 14.9689 154.947 14.6045C154.522 14.4277 153.276 13.9968 152.84 13.8506C152.22 13.6425 150.999 13.1744 150.508 12.8623C150.075 12.5869 149.653 12.3283 149.295 11.9561C148.912 11.5574 148.599 11.0754 148.408 10.5498C147.999 9.42915 148.091 8.11468 148.629 7.05371C149.148 6.03341 150.084 5.29109 151.125 4.86133ZM124.019 5.45703C124.996 5.03599 128.925 3.56821 131.868 4.7832C134.762 5.97863 135.399 8.98547 135.401 10.2695C135.404 10.3062 135.404 10.3425 135.404 10.3799V12.043H135.401V20.5498C135.393 20.6725 135.295 20.7715 135.171 20.7715C135.168 20.7714 135.166 20.7695 135.164 20.7695V20.7734H132.699V20.7695C132.69 20.7695 132.686 20.7715 132.683 20.7715C132.561 20.7713 132.462 20.6738 132.456 20.5498V20.5479C132.456 20.5452 132.454 20.5429 132.454 20.54C132.454 20.5392 132.456 20.5366 132.456 20.5352V19.7705C131.609 20.4307 130.406 21.0564 128.679 21.0635H128.65C125.684 21.0502 124.249 19.6119 123.553 18.3398C122.829 17.0057 122.798 15.5963 122.798 15.3145V15.3086C122.798 15.0226 122.829 13.615 123.553 12.2812C124.249 11.0082 125.684 9.57 128.65 9.55859H128.679C130.338 9.56482 131.512 10.1529 132.354 10.7705V10.166C132.353 9.66507 132.279 8.15433 130.76 7.45703C128.973 6.63619 126.052 7.62288 124.974 8.18457L124.97 8.18359C124.945 8.19595 124.918 8.20114 124.887 8.20117C124.79 8.20117 124.709 8.14093 124.678 8.05371C124.676 8.05371 124.671 8.05363 124.67 8.05664L123.877 5.7832C123.879 5.78305 123.88 5.78125 123.882 5.78125C123.867 5.74899 123.854 5.71447 123.854 5.6748C123.854 5.57059 123.925 5.4848 124.019 5.45898V5.45703ZM129.214 12.2256C126.5 12.2353 126.057 14.4807 126.057 15.123V15.3848C126.057 16.0259 126.5 18.2734 129.214 18.2842C131.928 18.2733 132.372 16.0258 132.372 15.3848V15.123C132.372 14.4807 131.928 12.2355 129.214 12.2256ZM115.374 7.19629C112.588 7.20689 112.131 9.59663 112.13 10.2803V10.9004H118.551C118.62 10.0758 118.552 9.59489 118.309 8.97461C117.966 8.09791 117.095 7.20355 115.374 7.19629Z" fill="#935227"/>
<path fill-rule="evenodd" clip-rule="evenodd" d="M68.3182 15.3847C68.3182 16.0258 67.8744 18.2728 65.1608 18.2836C62.4466 18.2728 62.0039 16.0258 62.0039 15.3847V15.1227C62.0039 14.4804 62.4466 12.235 65.1608 12.2252C67.8744 12.235 68.3182 14.4804 68.3182 15.1227V15.3847ZM71.3471 10.2698C71.3456 8.98595 70.7093 5.97854 67.8141 4.78304C64.8713 3.56805 60.9432 5.03567 59.9661 5.4567V5.45878C59.872 5.48449 59.8007 5.56995 59.8007 5.67427C59.8007 5.71409 59.8133 5.74852 59.8287 5.78088C59.8258 5.78088 59.8258 5.78337 59.824 5.78337L60.6168 8.05655C60.6168 8.05344 60.6217 8.05344 60.6246 8.05344C60.6555 8.14076 60.7366 8.20132 60.8334 8.20132C60.8645 8.20132 60.8919 8.19572 60.9168 8.18328L60.9205 8.18452C61.9975 7.62287 64.9189 6.63602 66.7065 7.45694C68.4424 8.25401 68.2908 10.114 68.3009 10.3136V10.3795V10.7705C67.4593 10.1528 66.2847 9.56482 64.6262 9.5586H64.6108H64.5964C61.6305 9.57001 60.1959 11.0082 59.4999 12.2812C58.7756 13.6155 58.7448 15.0236 58.7448 15.3088V15.3144C58.7448 15.5962 58.7756 17.0058 59.4999 18.34C60.1959 19.6121 61.6305 21.05 64.5964 21.0633H64.6108H64.6262C66.3529 21.0562 67.5561 20.4305 68.4024 19.7703V20.5352C68.4024 20.5369 68.3999 20.5394 68.3999 20.54C68.3999 20.5429 68.4024 20.5446 68.4024 20.5473V20.5493C68.4084 20.6736 68.5072 20.7717 68.63 20.7717C68.6328 20.7717 68.6365 20.7692 68.6448 20.7692V20.7737H71.1103V20.7692C71.1125 20.7692 71.115 20.7717 71.1181 20.7717C71.2425 20.7717 71.3388 20.6721 71.3471 20.5493V12.0429H71.3504V10.3795C71.3504 10.3422 71.3504 10.3065 71.3471 10.2698Z" fill="#FFB700"/>
<path fill-rule="evenodd" clip-rule="evenodd" d="M86.9214 10.4183C86.9214 10.1167 86.8932 8.62688 86.169 7.2134C85.4732 5.86608 84.0356 4.34412 81.0731 4.33396V4.33105C81.0673 4.33105 81.0652 4.33396 81.0543 4.33396C81.0525 4.33396 81.0473 4.33105 81.0397 4.33105V4.33396C79.0915 4.33914 77.8068 5.13891 76.9557 5.9704V4.8782H76.9522C76.9557 4.87322 76.9557 4.86928 76.9557 4.86471C76.9557 4.73985 76.855 4.63843 76.7335 4.63532C76.7335 4.63491 76.7335 4.63387 76.7354 4.63263H74.1183V4.63532C73.9923 4.63843 73.8955 4.73985 73.8955 4.86471C73.8955 4.86928 73.8984 4.87322 73.8984 4.8782H73.8955V20.5491H73.8984C73.9083 20.6658 74.0026 20.7602 74.1226 20.7602C74.1274 20.7602 74.1329 20.7575 74.1381 20.7575V20.7625H76.9341V20.7602C77.0547 20.7602 77.1513 20.6658 77.1593 20.5468H77.162V20.5323V20.53V20.5285V10.1152C77.2306 9.27834 77.8024 7.20925 80.3966 7.19888C83.1864 7.20987 83.6403 9.599 83.6403 10.283V20.5115H83.6452C83.6452 20.5175 83.6403 20.5202 83.6403 20.525C83.6403 20.6526 83.7453 20.7556 83.8695 20.7556H83.8773H86.6945H86.6963H86.7048V20.7536C86.8294 20.748 86.9214 20.649 86.9214 20.525V20.513V20.5115V10.4183Z" fill="#88CC2F"/>
<path fill-rule="evenodd" clip-rule="evenodd" d="M98.8197 10.3189C98.8197 10.9467 98.364 13.2286 95.577 13.2387C92.787 13.2286 92.3344 10.9467 92.3344 10.3189V10.1142C92.3344 9.48488 92.787 7.20153 95.577 7.19261C98.364 7.20153 98.8197 9.48488 98.8197 10.1142V10.3189ZM103.89 4.65146C103.89 4.52867 103.793 4.4287 103.674 4.42352V4.4204C101.995 4.37291 100.907 5.07125 100.207 5.84032C99.2657 5.01608 97.815 4.35072 95.5968 4.34304V4.3418H95.577H95.5591V4.34304C92.2698 4.35507 90.6718 5.80423 89.9008 7.08995C89.0986 8.4383 89.0621 9.85842 89.0621 10.1444V10.2996C89.0621 10.5879 89.0986 12.0084 89.9037 13.3534C90.2464 13.9298 90.7597 14.5367 91.5151 15.0353C90.2771 15.7529 89.1834 17.0194 89.1834 19.306V20.5061V20.5098C89.1834 20.6343 89.2786 20.733 89.4023 20.7384V20.7413V20.7432H98.8125C99.9438 20.7432 100.515 21.4944 100.674 22.2002C100.875 23.0947 100.533 24.3075 99.0268 25.1201C99.0293 25.1242 99.0293 25.1257 99.0309 25.1269C98.9424 25.158 98.8728 25.2422 98.8728 25.343C98.8728 25.387 98.8895 25.4266 98.9094 25.4598H98.9039L100.133 27.7123C100.136 27.711 100.139 27.7123 100.139 27.711C100.175 27.7888 100.252 27.8419 100.342 27.8419C100.377 27.8419 100.41 27.834 100.441 27.8199V27.8218C103.289 26.3577 103.911 23.6031 103.459 21.5701C102.965 19.3562 101.099 17.8691 98.8125 17.8691L92.3111 18.0251C92.6688 16.047 94.9599 16.084 95.235 16.0954L95.2321 16.0902C95.3415 16.0941 95.4459 16.1006 95.5591 16.1006H95.577H95.5968C98.8858 16.0902 100.482 14.6398 101.252 13.3534C102.055 12.0084 102.091 10.5879 102.091 10.2996V10.1444C102.091 9.8999 102.063 8.84855 101.568 7.71383C101.999 7.41267 102.669 7.13433 103.654 7.18743C103.656 7.18743 103.659 7.19054 103.662 7.19054C103.784 7.19054 103.883 7.09181 103.89 6.9738V4.66286V4.66183V4.65146Z" fill="#31B4DD"/>
<path fill-rule="evenodd" clip-rule="evenodd" d="M53.7903 15.1195C53.7903 15.8035 53.3356 18.192 50.5487 18.2022C47.7605 18.192 47.3067 15.8035 47.3067 15.1195V10.2936C47.3067 9.60953 47.7605 7.22206 50.5487 7.21211C53.3356 7.22206 53.7903 9.60953 53.7903 10.2936V15.1195ZM56.3161 7.22434C55.623 5.87765 54.1856 4.35486 51.2243 4.34304V4.3418H51.2054H51.1901V4.34304C49.2364 4.35051 47.9438 5.15566 47.0946 5.99359V4.8682H47.0929C47.0929 4.86509 47.0946 4.86509 47.0946 4.86509C47.0946 4.73712 46.9902 4.63528 46.865 4.63528C46.8604 4.63528 46.8555 4.6388 46.8512 4.6388C46.8512 4.63569 46.8512 4.63424 46.853 4.633H44.2751C44.2751 4.63424 44.2782 4.63569 44.2782 4.6388C44.2733 4.6388 44.2679 4.63528 44.263 4.63528C44.1357 4.63528 44.033 4.73712 44.033 4.86509C44.033 4.86509 44.0352 4.86509 44.0352 4.8682H44.033V27.2213L44.0352 27.2228C44.0408 27.3454 44.1374 27.4449 44.263 27.4449H44.2733H47.0625H47.0752H47.0847H47.1051V27.4387C47.2128 27.4242 47.2941 27.3391 47.2995 27.2302C47.3015 27.2302 47.3015 27.2271 47.3015 27.2271V27.217C47.3015 27.2145 47.3036 27.2145 47.3036 27.2145C47.3036 27.2145 47.3015 27.2145 47.3015 27.2124V19.6138C48.1534 20.3572 49.3867 21.0632 51.1901 21.0694H51.2054H51.2243C54.1856 21.0584 55.623 19.5352 56.3161 18.1883C57.043 16.7757 57.0729 15.285 57.0729 14.9835V10.4271C57.0729 10.1274 57.043 8.637 56.3161 7.22434Z" fill="#F7552F"/>
</svg>
