<svg preserveAspectRatio="none" width="100%" height="100%" overflow="visible" style="display: block;" viewBox="0 0 39 49" fill="none" xmlns="http://www.w3.org/2000/svg">
<g id="Group 1410076494">
<rect id="Rectangle 21167" width="38.4" height="38.4" fill="var(--fill-0, #F4F6F8)"/>
<path id="Vector" d="M17.4292 29.6428L24.0404 31.3929L25.9142 48.9522H8.58045L10.8181 31.3929L17.4292 29.6428Z" fill="var(--fill-0, #AECFFF)"/>
<path id="Vector_2" d="M24.0382 31.3928C26.6652 32.0877 28.5426 34.3982 28.6882 37.1088L29.183 46.3251H25.6318L24.0382 31.3891V31.3928Z" fill="var(--fill-0, #AECFFF)"/>
<path id="Vector_3" d="M10.8175 31.3928C8.16868 32.095 6.23301 34.3654 5.96376 37.0943L5.04323 46.3251H9.4749L10.8211 31.3891L10.8175 31.3928Z" fill="var(--fill-0, #AECFFF)"/>
<path id="Vector_4" d="M17.429 27.3105C22.0862 27.3105 25.863 23.5337 25.863 18.8764C25.863 14.2192 22.0862 10.4424 17.429 10.4424C12.7717 10.4424 8.99497 14.2192 8.99497 18.8764C8.99497 23.5337 12.7717 27.3105 17.429 27.3105Z" fill="var(--fill-0, #331F16)"/>
<path id="Vector_5" fill-rule="evenodd" clip-rule="evenodd" d="M17.4285 13.493C13.1787 13.493 9.7367 16.3419 9.7367 20.5917V21.9488C9.7367 26.1986 13.1823 29.6406 17.4285 29.6406C21.6746 29.6406 25.1202 26.1949 25.1202 21.9488V20.5917C25.1202 16.3419 21.6746 13.493 17.4285 13.493Z" fill="var(--fill-0, #FFC7B8)"/>
<path id="Vector_6" d="M19.3716 27.9604H15.4821V30.1944C15.4821 31.2677 16.3517 32.141 17.4287 32.141C18.5057 32.141 19.3753 31.2714 19.3753 30.1944V27.9604H19.3716Z" fill="var(--fill-0, #FFC7B8)"/>
<path id="Vector_7" d="M19.4937 23.0529C19.9704 23.0529 20.3597 22.6236 20.3597 22.0923C20.3597 21.5611 19.9704 21.1318 19.4937 21.1318C19.0171 21.1318 18.6278 21.5611 18.6278 22.0923C18.6278 22.6236 19.0171 23.0529 19.4937 23.0529Z" fill="var(--fill-0, #212B36)"/>
<path id="Vector_8" d="M15.3628 23.0529C15.8394 23.0529 16.2287 22.6236 16.2287 22.0923C16.2287 21.5611 15.8394 21.1318 15.3628 21.1318C14.8861 21.1318 14.4968 21.5611 14.4968 22.0923C14.4968 22.6236 14.8861 23.0529 15.3628 23.0529Z" fill="var(--fill-0, #212B36)"/>
<path id="Vector_9" d="M16.0084 25.3245C16.0084 25.3245 16.4349 25.6805 17.4219 25.6805C18.4088 25.6805 18.8353 25.3245 18.8353 25.3245" stroke="var(--stroke-0, #BC2A2A)" stroke-width="0.704956" stroke-miterlimit="10" stroke-linecap="round"/>
<path id="Vector_10" fill-rule="evenodd" clip-rule="evenodd" d="M26.4095 18.8758C26.4095 13.9165 22.389 9.89602 17.4297 9.89602C12.4705 9.89602 8.44994 13.9165 8.44994 18.8758C8.44994 21.2845 9.02846 22.9327 9.41777 23.7696C9.54876 24.0497 9.94172 24.057 10.08 23.7841L10.2837 23.3839C10.553 22.8563 10.7495 22.2923 10.8732 21.7138L11.4626 18.934C11.6009 18.2755 12.1321 17.7661 12.7979 17.6678C14.0459 17.4823 15.5814 17.3476 17.4297 17.3476C19.2781 17.3476 20.7917 17.4786 22.0397 17.6642C22.7055 17.7624 23.2367 18.2718 23.3786 18.9304L23.9681 21.7065C24.0918 22.2923 24.2955 22.8599 24.5684 23.3948L24.7722 23.7914C24.9104 24.0606 25.2998 24.057 25.4307 23.7841C25.8237 22.9545 26.4131 21.299 26.4131 18.8794" fill="var(--fill-0, #FF6A19)"/>
<path id="Vector_11" fill-rule="evenodd" clip-rule="evenodd" d="M16.0687 9.9979C15.2938 11.4897 14.7225 14.2149 14.5515 17.4604C15.4138 17.3877 16.3671 17.344 17.4295 17.344C18.492 17.344 19.4489 17.3877 20.3076 17.4604C20.1366 14.2149 19.5653 11.4897 18.7903 9.9979C18.3464 9.92877 17.8916 9.89602 17.4295 9.89602C16.9675 9.89602 16.5126 9.93241 16.0687 9.9979Z" fill="var(--fill-0, #FFA366)"/>
<path id="Vector_12" fill-rule="evenodd" clip-rule="evenodd" d="M14.8645 18.0996C14.8645 18.0996 13.6674 21.1559 10.9931 21.1559L11.7863 18.2524L14.8681 18.0996H14.8645Z" fill="var(--fill-0, #212B36)"/>
<path id="Vector_13" fill-rule="evenodd" clip-rule="evenodd" d="M22.9839 18.2524L19.9021 18.0996C19.9021 18.0996 21.0992 21.1559 23.7735 21.1559" fill="var(--fill-0, #212B36)"/>
<path id="Vector_14" d="M9.41547 23.7646C9.54646 24.0448 9.93941 24.0521 10.0777 23.7792L10.2814 23.379C10.5507 22.8514 10.7472 22.2874 10.8709 21.7089L11.4603 18.9291C11.5986 18.2705 12.1298 17.7611 12.7956 17.6629C14.0436 17.4773 15.5791 17.3427 17.4274 17.3427C19.2758 17.3427 20.7894 17.4737 22.0374 17.6593C22.7032 17.7575 23.2344 18.2669 23.3763 18.9255L23.9658 21.7016C24.0895 22.2874 24.2932 22.855 24.5661 23.3899L24.7699 23.7865C24.9081 24.0557 25.2975 24.0521 25.4284 23.7792" stroke="var(--stroke-0, #00479F)" stroke-width="1.62492" stroke-linecap="round" stroke-linejoin="round"/>
</g>
</svg>
