<svg preserveAspectRatio="none" width="100%" height="100%" overflow="visible" style="display: block;" viewBox="0 0 31 14" fill="none" xmlns="http://www.w3.org/2000/svg">
<g id="Symbol" clip-path="url(#clip0_198_2840)">
<path id="Rectangle" d="M0 7C0 3.13401 3.13401 0 7 0H24C27.866 0 31 3.13401 31 7V7C31 10.866 27.866 14 24 14H7C3.13401 14 0 10.866 0 7V7Z" fill="var(--fill-0, #417CD3)"/>
<path id="WOW" fill-rule="evenodd" clip-rule="evenodd" d="M16.9904 9.91472C16.5369 10.1776 16.0241 10.309 15.4521 10.309C14.8802 10.309 14.3674 10.1776 13.9139 9.91472C13.4603 9.65184 13.105 9.28208 12.8479 8.80544C12.5908 8.32879 12.4623 7.77849 12.4623 7.15452C12.4623 6.53055 12.5908 5.98024 12.8479 5.50359C13.105 5.02695 13.4603 4.65719 13.9139 4.39431C14.3674 4.13144 14.8802 4 15.4521 4C16.0241 4 16.5369 4.13144 16.9904 4.39431C17.4439 4.65719 17.7992 5.02695 18.0563 5.50359C18.3134 5.98024 18.442 6.53055 18.442 7.15452C18.442 7.77849 18.3134 8.32879 18.0563 8.80544C17.7992 9.28208 17.4439 9.65184 16.9904 9.91472ZM7.99916 6.14056L6.65589 10.1877H5.60728L3.90002 4.12133H5.05264L6.26591 8.42845L7.61785 4.12133H8.38914L9.79307 8.31579L10.9544 4.12133H12.107L10.3304 10.1877H9.3511L7.99916 6.14056ZM15.4521 9.23442C14.8628 9.23442 14.4107 9.04376 14.0959 8.66244C13.781 8.28113 13.6236 7.77849 13.6236 7.15452C13.6236 6.53055 13.781 6.0279 14.0959 5.64659C14.4107 5.26527 14.8628 5.07462 15.4521 5.07462C16.0414 5.07462 16.4935 5.26527 16.8084 5.64659C17.1233 6.0279 17.2807 6.53055 17.2807 7.15452C17.2807 7.77849 17.1233 8.28113 16.8084 8.66244C16.4935 9.04376 16.0414 9.23442 15.4521 9.23442ZM22.9311 6.14056L21.5878 10.1877H20.5392L18.832 4.12133H19.9846L21.1979 8.42845L22.5498 4.12133H23.3211L24.725 8.31579L25.8863 4.12133H27.0389L25.2623 10.1877H24.283L22.9311 6.14056Z" fill="var(--fill-0, white)"/>
</g>
<defs>
<clipPath id="clip0_198_2840">
<rect width="31" height="14" fill="white"/>
</clipPath>
</defs>
</svg>
