<svg preserveAspectRatio="none" width="100%" height="100%" overflow="visible" style="display: block;" viewBox="0 0 18 18" fill="none" xmlns="http://www.w3.org/2000/svg">
<g id="Chat ">
<path id="Icon" fill-rule="evenodd" clip-rule="evenodd" d="M2.45455 0C1.09894 0 0 1.09894 0 2.45454V8.64149C0 9.9971 1.09894 11.096 2.45455 11.096V14.7273C2.45455 15.0534 2.64824 15.3484 2.9475 15.478C3.24676 15.6077 3.59444 15.5472 3.83235 15.3241L5.72391 13.5506L5.72727 13.5506H9.65824L14.1676 17.7787C14.4056 18.0017 14.7532 18.0622 15.0525 17.9326C15.3518 17.8029 15.5455 17.5079 15.5455 17.1818V13.5506C16.9011 13.5506 18 12.4516 18 11.096V4.90909C18 3.55348 16.9011 2.45454 15.5455 2.45454H14.7273C14.7273 1.09894 13.6283 0 12.2727 0H2.45455ZM13.0909 2.45454C13.0909 2.00267 12.7246 1.63636 12.2727 1.63636H2.45455C2.00268 1.63636 1.63636 2.00267 1.63636 2.45454V8.64149C1.63636 9.09336 2.00268 9.45967 2.45455 9.45967H3.27273C3.7246 9.45967 4.09091 9.82598 4.09091 10.2779V12.8385L7.45856 9.68099C7.61021 9.5388 7.8103 9.45967 8.01818 9.45967H12.2727C12.7246 9.45967 13.0909 9.09336 13.0909 8.64149V2.45454ZM14.7273 4.0909H15.5455C15.9973 4.0909 16.3636 4.45722 16.3636 4.90909V11.096C16.3636 11.5479 15.9973 11.9142 15.5455 11.9142H14.7273C14.2754 11.9142 13.9091 12.2805 13.9091 12.7324V15.2931L10.5414 12.1355C10.3898 11.9933 10.1897 11.9142 9.98182 11.9142H7.46914L8.34176 11.096H12.2727C13.6283 11.096 14.7273 9.9971 14.7273 8.64149V4.0909Z" fill="var(--fill-0, #212B36)"/>
</g>
</svg>
