<svg preserveAspectRatio="none" width="100%" height="100%" overflow="visible" style="display: block;" viewBox="0 0 18 18" fill="none" xmlns="http://www.w3.org/2000/svg">
<path id="Icon" fill-rule="evenodd" clip-rule="evenodd" d="M1.4005 1.01227L3.39147 0.176439C4.42717 -0.258341 5.62501 0.133584 6.20375 1.09717L7.55408 3.35064C8.06823 4.20657 7.95971 5.2985 7.32046 5.99723L6.43524 7.1101L6.46359 7.17462C7.24606 8.91108 8.49309 10.1527 10.0704 10.7964L10.1335 10.8211L11.2154 9.96467C11.9165 9.32577 12.937 9.19587 13.7705 9.62492L13.9005 9.69732L16.1554 11.0485C17.1183 11.6269 17.5102 12.8247 17.0754 13.8604L16.2396 15.8514C15.9145 16.6257 15.1876 17.1574 14.3518 17.228C12.2009 17.4098 9.45085 16.5654 6.15383 14.2055C4.95484 13.3473 3.90444 12.297 3.04632 11.098C0.686468 7.801 -0.157877 5.05104 0.0237971 2.9C0.0944506 2.06418 0.626179 1.3373 1.4005 1.01227ZM6.26782 4.12234L4.91746 1.86884C4.72302 1.5451 4.3203 1.41333 3.97208 1.55951L1.98107 2.39536C1.72017 2.50487 1.54195 2.7485 1.51847 3.0263C1.36821 4.80535 2.10537 7.20619 4.26607 10.225C5.02842 11.2901 5.96168 12.2233 7.02687 12.9858C10.0457 15.1465 12.4466 15.8837 14.2255 15.7334C14.5033 15.7099 14.747 15.5317 14.8565 15.2707L15.6923 13.2797C15.8385 12.9315 15.7067 12.5288 15.3837 12.3348L13.1288 10.9836C12.841 10.8107 12.4739 10.8472 12.1866 11.1067L10.9526 12.0831C10.6173 12.3886 10.133 12.4602 9.72478 12.2704L9.75549 12.2821L9.69013 12.2536C9.70161 12.2594 9.71317 12.265 9.72478 12.2704L9.542 12.2008C7.57204 11.409 6.02367 9.86976 5.1018 7.80249L4.95134 7.45618C4.80038 7.06409 4.87798 6.6185 5.13547 6.33844L6.24063 4.9482C6.40981 4.70529 6.42377 4.38196 6.26782 4.12234Z" fill="var(--fill-0, #212B36)"/>
</svg>
