<svg preserveAspectRatio="none" width="100%" height="100%" overflow="visible" style="display: block;" viewBox="0 0 14 15" fill="none" xmlns="http://www.w3.org/2000/svg">
<path id="Union" d="M9.75 9C11.8211 9 13.5 10.6789 13.5 12.75V14.25C13.5 14.6642 13.1642 15 12.75 15C12.3358 15 12 14.6642 12 14.25V12.75C12 11.5074 10.9926 10.5 9.75 10.5H3.75C2.50736 10.5 1.5 11.5074 1.5 12.75V14.25C1.5 14.6642 1.16421 15 0.75 15C0.335786 15 0 14.6642 0 14.25V12.75C4.83199e-08 10.6789 1.67893 9 3.75 9H9.75ZM6.75 0C8.82107 0 10.5 1.67893 10.5 3.75C10.5 5.82107 8.82107 7.5 6.75 7.5C4.67893 7.5 3 5.82107 3 3.75C3 1.67893 4.67893 3.09247e-06 6.75 0ZM6.75 1.5C5.50736 1.5 4.5 2.50736 4.5 3.75C4.5 4.99264 5.50736 6 6.75 6C7.99264 6 9 4.99264 9 3.75C9 2.50736 7.99264 1.5 6.75 1.5Z" fill="var(--fill-0, white)"/>
</svg>
